<svg width="22" height="22" viewBox="0 0 22 22" fill="none" xmlns="http://www.w3.org/2000/svg">
<path d="M9.69209 6.27325C10.0525 6.62499 13.5733 10.3208 13.5733 10.3208C13.7655 10.5096 13.8621 10.7553 13.8621 11.001C13.8621 11.2467 13.7655 11.4924 13.5733 11.6795C13.5733 11.6795 10.0525 15.3771 9.69209 15.7271C9.33173 16.0788 8.68343 16.1029 8.2998 15.7271C7.9153 15.3529 7.88512 14.8296 8.2998 14.3701L11.5301 11.001L8.2998 7.63192C7.88512 7.17242 7.9153 6.64826 8.2998 6.27325C8.68343 5.89737 9.33173 5.92065 9.69209 6.27325Z" fill="#44566C"/>
<mask id="mask0_2436_21023" style="mask-type:alpha" maskUnits="userSpaceOnUse" x="8" y="6" width="6" height="10">
<path d="M9.69209 6.27325C10.0525 6.62499 13.5733 10.3208 13.5733 10.3208C13.7655 10.5096 13.8621 10.7553 13.8621 11.001C13.8621 11.2467 13.7655 11.4924 13.5733 11.6795C13.5733 11.6795 10.0525 15.3771 9.69209 15.7271C9.33173 16.0788 8.68343 16.1029 8.2998 15.7271C7.9153 15.3529 7.88512 14.8296 8.2998 14.3701L11.5301 11.001L8.2998 7.63192C7.88512 7.17242 7.9153 6.64826 8.2998 6.27325C8.68343 5.89737 9.33173 5.92065 9.69209 6.27325Z" fill="white"/>
</mask>
<g mask="url(#mask0_2436_21023)">
<rect width="22" height="22" fill="#B3C0CE"/>
</g>
</svg>
