<svg width="22" height="22" viewBox="0 0 22 22" fill="none" xmlns="http://www.w3.org/2000/svg">
<path d="M12.3079 15.7268C11.9475 15.375 8.42672 11.6792 8.42672 11.6792C8.23447 11.4904 8.13792 11.2447 8.13792 10.999C8.13792 10.7533 8.23447 10.5076 8.42672 10.3205C8.42672 10.3205 11.9475 6.62294 12.3079 6.27293C12.6683 5.92119 13.3166 5.89705 13.7002 6.27293C14.0847 6.64708 14.1149 7.17038 13.7002 7.62988L10.4699 10.999L13.7002 14.3681C14.1149 14.8276 14.0847 15.3517 13.7002 15.7268C13.3166 16.1026 12.6683 16.0794 12.3079 15.7268Z" fill="#44566C"/>
<mask id="mask0_2436_21008" style="mask-type:alpha" maskUnits="userSpaceOnUse" x="8" y="6" width="6" height="10">
<path d="M12.3079 15.7268C11.9475 15.375 8.42672 11.6792 8.42672 11.6792C8.23447 11.4904 8.13792 11.2447 8.13792 10.999C8.13792 10.7533 8.23447 10.5076 8.42672 10.3205C8.42672 10.3205 11.9475 6.62294 12.3079 6.27293C12.6683 5.92119 13.3166 5.89705 13.7002 6.27293C14.0847 6.64708 14.1149 7.17038 13.7002 7.62988L10.4699 10.999L13.7002 14.3681C14.1149 14.8276 14.0847 15.3517 13.7002 15.7268C13.3166 16.1026 12.6683 16.0794 12.3079 15.7268Z" fill="white"/>
</mask>
<g mask="url(#mask0_2436_21008)">
<rect x="22" y="22" width="22" height="22" transform="rotate(-180 22 22)" fill="#B3C0CE"/>
</g>
</svg>
