<svg width="50" height="50" viewBox="0 0 50 50" fill="none" xmlns="http://www.w3.org/2000/svg">
<path d="M14.4139 27.8157C15.2133 26.9967 23.6129 18.9948 23.6129 18.9948C24.042 18.5579 24.6004 18.3385 25.1588 18.3385C25.7172 18.3385 26.2756 18.5579 26.7008 18.9948C26.7008 18.9948 35.1043 26.9967 35.8998 27.8157C36.6992 28.6347 36.7541 30.1081 35.8998 30.98C35.0495 31.8539 33.8602 31.9225 32.8158 30.98L25.1588 23.6384L17.5018 30.98C16.4574 31.9225 15.2662 31.8539 14.4139 30.98C13.5596 30.1081 13.6125 28.6347 14.4139 27.8157Z" fill="#44566C"/>
<mask id="mask0_1181_1862" style="mask-type:alpha" maskUnits="userSpaceOnUse" x="13" y="18" width="24" height="14">
<path d="M14.4139 27.8157C15.2133 26.9967 23.6129 18.9948 23.6129 18.9948C24.042 18.5579 24.6004 18.3385 25.1588 18.3385C25.7172 18.3385 26.2756 18.5579 26.7008 18.9948C26.7008 18.9948 35.1043 26.9967 35.8998 27.8157C36.6992 28.6347 36.7541 30.1081 35.8998 30.98C35.0495 31.8539 33.8602 31.9225 32.8158 30.98L25.1588 23.6384L17.5018 30.98C16.4574 31.9225 15.2662 31.8539 14.4139 30.98C13.5596 30.1081 13.6125 28.6347 14.4139 27.8157Z" fill="white"/>
</mask>
<g mask="url(#mask0_1181_1862)">
<rect x="50" y="50" width="50" height="50" transform="rotate(-180 50 50)" fill="#44566C"/>
</g>
</svg>
