<svg width="50" height="50" viewBox="0 0 50 50" fill="none" xmlns="http://www.w3.org/2000/svg">
<path d="M35.5861 22.1843C34.7867 23.0033 26.3871 31.0052 26.3871 31.0052C25.958 31.4421 25.3996 31.6615 24.8412 31.6615C24.2828 31.6615 23.7244 31.4421 23.2992 31.0052C23.2992 31.0052 14.8957 23.0033 14.1002 22.1843C13.3008 21.3653 13.2459 19.8919 14.1002 19.02C14.9505 18.1461 16.1398 18.0775 17.1842 19.02L24.8412 26.3616L32.4982 19.02C33.5426 18.0775 34.7338 18.1461 35.5861 19.02C36.4404 19.8919 36.3875 21.3653 35.5861 22.1843Z" fill="#44566C"/>
<mask id="mask0_1181_1911" style="mask-type:alpha" maskUnits="userSpaceOnUse" x="13" y="18" width="24" height="14">
<path d="M35.5861 22.1843C34.7867 23.0033 26.3871 31.0052 26.3871 31.0052C25.958 31.4421 25.3996 31.6615 24.8412 31.6615C24.2828 31.6615 23.7244 31.4421 23.2992 31.0052C23.2992 31.0052 14.8957 23.0033 14.1002 22.1843C13.3008 21.3653 13.2459 19.8919 14.1002 19.02C14.9505 18.1461 16.1398 18.0775 17.1842 19.02L24.8412 26.3616L32.4982 19.02C33.5426 18.0775 34.7338 18.1461 35.5861 19.02C36.4404 19.8919 36.3875 21.3653 35.5861 22.1843Z" fill="white"/>
</mask>
<g mask="url(#mask0_1181_1911)">
<rect width="50" height="50" fill="#44566C"/>
</g>
</svg>
