<svg width="18" height="18" viewBox="0 0 18 18" fill="none" xmlns="http://www.w3.org/2000/svg">
<path d="M7.92985 5.13262C8.22469 5.42041 11.1054 8.44428 11.1054 8.44428C11.2627 8.59875 11.3417 8.79978 11.3417 9.0008C11.3417 9.20183 11.2627 9.40286 11.1054 9.55592C11.1054 9.55592 8.22469 12.5812 7.92985 12.8676C7.63501 13.1554 7.10458 13.1751 6.7907 12.8676C6.47611 12.5614 6.45142 12.1333 6.7907 11.7573L9.43367 9.0008L6.7907 6.24427C6.45142 5.86831 6.47611 5.43945 6.7907 5.13262C7.10458 4.82509 7.63501 4.84413 7.92985 5.13262Z" fill="#44566C"/>
<mask id="mask0_1403_23" style="mask-type:alpha" maskUnits="userSpaceOnUse" x="6" y="4" width="6" height="10">
<path d="M7.92985 5.13262C8.22469 5.42041 11.1054 8.44428 11.1054 8.44428C11.2627 8.59875 11.3417 8.79978 11.3417 9.0008C11.3417 9.20183 11.2627 9.40286 11.1054 9.55592C11.1054 9.55592 8.22469 12.5812 7.92985 12.8676C7.63501 13.1554 7.10458 13.1751 6.7907 12.8676C6.47611 12.5614 6.45142 12.1333 6.7907 11.7573L9.43367 9.0008L6.7907 6.24427C6.45142 5.86831 6.47611 5.43945 6.7907 5.13262C7.10458 4.82509 7.63501 4.84413 7.92985 5.13262Z" fill="white"/>
</mask>
<g mask="url(#mask0_1403_23)">
<rect width="18" height="18" fill="#8697A8"/>
</g>
</svg>
