<svg width="16" height="16" viewBox="0 0 16 16" fill="none" xmlns="http://www.w3.org/2000/svg">
<mask id="mask0_2321_26713" style="mask-type:alpha" maskUnits="userSpaceOnUse" x="0" y="0" width="16" height="16">
<path fill-rule="evenodd" clip-rule="evenodd" d="M8 16C12.4183 16 16 12.4183 16 8C16 3.58172 12.4183 0 8 0C3.58172 0 0 3.58172 0 8C0 12.4183 3.58172 16 8 16Z" fill="white"/>
</mask>
<g mask="url(#mask0_2321_26713)">
<rect width="16" height="16" fill="#44566C"/>
</g>
<path d="M5.91 4.992C6.14252 5.21583 8.41432 7.56773 8.41432 7.56773C8.53837 7.68788 8.60068 7.84423 8.60068 8.00058C8.60068 8.15694 8.53837 8.31329 8.41432 8.43234C8.41432 8.43234 6.14252 10.7853 5.91 11.0081C5.67747 11.2319 5.25916 11.2473 5.01162 11.0081C4.76352 10.77 4.74405 10.437 5.01162 10.1446L7.09596 8.00058L5.01162 5.85661C4.74405 5.5642 4.76352 5.23065 5.01162 4.992C5.25916 4.75281 5.67747 4.76762 5.91 4.992Z" fill="#44566C"/>
<path d="M10.09 4.992C9.85747 5.21583 7.58566 7.56773 7.58566 7.56773C7.46162 7.68788 7.39931 7.84423 7.39931 8.00058C7.39931 8.15694 7.46162 8.31329 7.58566 8.43234C7.58566 8.43234 9.85747 10.7853 10.09 11.0081C10.3225 11.2319 10.7408 11.2473 10.9884 11.0081C11.2365 10.77 11.2559 10.437 10.9884 10.1446L8.90402 8.00058L10.9884 5.85661C11.2559 5.5642 11.2365 5.23065 10.9884 4.992C10.7408 4.75281 10.3225 4.76762 10.09 4.992Z" fill="#44566C"/>
<mask id="mask1_2321_26713" style="mask-type:alpha" maskUnits="userSpaceOnUse" x="4" y="4" width="8" height="8">
<path d="M5.91 4.992C6.14252 5.21583 8.41432 7.56773 8.41432 7.56773C8.53837 7.68788 8.60068 7.84423 8.60068 8.00058C8.60068 8.15694 8.53837 8.31329 8.41432 8.43234C8.41432 8.43234 6.14252 10.7853 5.91 11.0081C5.67747 11.2319 5.25916 11.2473 5.01162 11.0081C4.76352 10.77 4.74405 10.437 5.01162 10.1446L7.09596 8.00058L5.01162 5.85661C4.74405 5.5642 4.76352 5.23065 5.01162 4.992C5.25916 4.75281 5.67747 4.76762 5.91 4.992Z" fill="white"/>
<path d="M10.09 4.992C9.85747 5.21583 7.58566 7.56773 7.58566 7.56773C7.46162 7.68788 7.39931 7.84423 7.39931 8.00058C7.39931 8.15694 7.46162 8.31329 7.58566 8.43234C7.58566 8.43234 9.85747 10.7853 10.09 11.0081C10.3225 11.2319 10.7408 11.2473 10.9884 11.0081C11.2365 10.77 11.2559 10.437 10.9884 10.1446L8.90402 8.00058L10.9884 5.85661C11.2559 5.5642 11.2365 5.23065 10.9884 4.992C10.7408 4.75281 10.3225 4.76762 10.09 4.992Z" fill="white"/>
</mask>
<g mask="url(#mask1_2321_26713)">
<rect x="1" y="1" width="14" height="14" fill="white"/>
</g>
</svg>
