<svg width="18" height="18" viewBox="0 0 18 18" fill="none" xmlns="http://www.w3.org/2000/svg">
<path d="M15.2512 9.74454H14.0459V14.0154C14.0459 14.3322 13.9061 14.7273 13.3251 14.7273H10.4418V10.4564H7.55841V14.7273H4.67507C4.09408 14.7273 3.95424 14.3322 3.95424 14.0154V9.74454H2.749C2.31794 9.74454 2.41021 9.51391 2.70575 9.2121L8.48973 3.49479C8.6303 3.351 8.81483 3.27982 9.00009 3.27271C9.18534 3.27982 9.36987 3.35029 9.51044 3.49479L15.2937 9.21139C15.59 9.51391 15.6822 9.74454 15.2512 9.74454Z" fill="#44566C"/>
<mask id="mask0_1403_26" style="mask-type:alpha" maskUnits="userSpaceOnUse" x="2" y="3" width="14" height="12">
<path d="M15.2512 9.74454H14.0459V14.0154C14.0459 14.3322 13.9061 14.7273 13.3251 14.7273H10.4418V10.4564H7.55841V14.7273H4.67507C4.09408 14.7273 3.95424 14.3322 3.95424 14.0154V9.74454H2.749C2.31794 9.74454 2.41021 9.51391 2.70575 9.2121L8.48973 3.49479C8.6303 3.351 8.81483 3.27982 9.00009 3.27271C9.18534 3.27982 9.36987 3.35029 9.51044 3.49479L15.2937 9.21139C15.59 9.51391 15.6822 9.74454 15.2512 9.74454Z" fill="#8697A8"/>
</mask>
<g mask="url(#mask0_1403_26)">
<rect width="18" height="18" fill="#8697A8"/>
</g>
</svg>
