<svg width="40" height="40" viewBox="0 0 40 40" fill="none" xmlns="http://www.w3.org/2000/svg">
<mask id="mask0_2321_26725" style="mask-type:alpha" maskUnits="userSpaceOnUse" x="0" y="0" width="40" height="40">
<circle cx="20" cy="20" r="20" fill="#09B66D"/>
</mask>
<g mask="url(#mask0_2321_26725)">
<rect x="-23" y="-12" width="298" height="64" fill="#FDBF5E"/>
</g>
<path fill-rule="evenodd" clip-rule="evenodd" d="M11.8182 9.54949V30.615C11.8182 30.8016 12.0267 30.91 12.1767 30.8014L14.1856 29.3469C14.3422 29.2335 14.5525 29.2326 14.7101 29.3448L16.7251 30.779C16.9622 30.9478 17.279 30.9458 17.5141 30.7742L19.4634 29.3504C19.6212 29.2352 19.8341 29.2347 19.9924 29.3494L21.969 30.7805C22.2016 30.9489 22.5134 30.952 22.7492 30.7883L24.8412 29.3363C24.9962 29.2286 25.2008 29.2291 25.3554 29.3373L27.4626 30.8122C27.6129 30.9174 27.8182 30.8085 27.8182 30.6235V9.54949C27.8182 9.29617 27.6153 9.09082 27.3649 9.09082H12.2714C12.0211 9.09082 11.8182 9.29617 11.8182 9.54949ZM14.2658 13.7693C14.2658 13.5159 14.4687 13.3106 14.7191 13.3106H20.7474C20.9977 13.3106 21.2006 13.5159 21.2006 13.7693C21.2006 14.0226 20.9977 14.2279 20.7474 14.2279H14.7191C14.4687 14.2279 14.2658 14.0226 14.2658 13.7693ZM14.2658 15.6727C14.2658 15.4194 14.4687 15.2141 14.7191 15.2141H19.4103C19.6606 15.2141 19.8635 15.4194 19.8635 15.6727C19.8635 15.926 19.6606 16.1314 19.4103 16.1314H14.7191C14.4687 16.1314 14.2658 15.926 14.2658 15.6727ZM14.2658 18.1954C14.2658 17.9421 14.4687 17.7367 14.7191 17.7367H20.7474C20.9977 17.7367 21.2006 17.9421 21.2006 18.1954C21.2006 18.4487 20.9977 18.6541 20.7474 18.6541H14.7191C14.4687 18.6541 14.2658 18.4487 14.2658 18.1954ZM14.2658 20.1447C14.2658 19.8914 14.4687 19.6861 14.7191 19.6861H19.4103C19.6606 19.6861 19.8635 19.8914 19.8635 20.1447C19.8635 20.3981 19.6606 20.6034 19.4103 20.6034H14.7191C14.4687 20.6034 14.2658 20.3981 14.2658 20.1447ZM14.2658 22.6674C14.2658 22.4141 14.4687 22.2088 14.7191 22.2088H20.7474C20.9977 22.2088 21.2006 22.4141 21.2006 22.6674C21.2006 22.9207 20.9977 23.1261 20.7474 23.1261H14.7191C14.4687 23.1261 14.2658 22.9207 14.2658 22.6674ZM14.2658 24.6168C14.2658 24.3635 14.4687 24.1581 14.7191 24.1581H19.4103C19.6606 24.1581 19.8635 24.3635 19.8635 24.6168C19.8635 24.8701 19.6606 25.0754 19.4103 25.0754H14.7191C14.4687 25.0754 14.2658 24.8701 14.2658 24.6168ZM22.753 13.7693C22.753 13.5159 22.956 13.3106 23.2063 13.3106H25.0987C25.349 13.3106 25.5519 13.5159 25.5519 13.7693C25.5519 14.0226 25.349 14.2279 25.0987 14.2279H23.2063C22.956 14.2279 22.753 14.0226 22.753 13.7693ZM23.2063 15.214C22.956 15.214 22.753 15.4194 22.753 15.6727C22.753 15.926 22.956 16.1314 23.2063 16.1314H25.0987C25.349 16.1314 25.5519 15.926 25.5519 15.6727C25.5519 15.4194 25.349 15.214 25.0987 15.214H23.2063ZM22.753 18.1954C22.753 17.9421 22.956 17.7367 23.2063 17.7367H25.0987C25.349 17.7367 25.5519 17.9421 25.5519 18.1954C25.5519 18.4487 25.349 18.6541 25.0987 18.6541H23.2063C22.956 18.6541 22.753 18.4487 22.753 18.1954ZM23.2063 19.6861C22.956 19.6861 22.753 19.8914 22.753 20.1447C22.753 20.3981 22.956 20.6034 23.2063 20.6034H25.0987C25.349 20.6034 25.5519 20.3981 25.5519 20.1447C25.5519 19.8914 25.349 19.6861 25.0987 19.6861H23.2063ZM22.753 22.6674C22.753 22.4141 22.956 22.2088 23.2063 22.2088H25.0987C25.349 22.2088 25.5519 22.4141 25.5519 22.6674C25.5519 22.9207 25.349 23.1261 25.0987 23.1261H23.2063C22.956 23.1261 22.753 22.9207 22.753 22.6674ZM23.2063 24.1581C22.956 24.1581 22.753 24.3635 22.753 24.6168C22.753 24.8701 22.956 25.0754 23.2063 25.0754H25.0987C25.349 25.0754 25.5519 24.8701 25.5519 24.6168C25.5519 24.3635 25.349 24.1581 25.0987 24.1581H23.2063Z" fill="#44566C"/>
<mask id="mask1_2321_26725" style="mask-type:alpha" maskUnits="userSpaceOnUse" x="11" y="9" width="17" height="22">
<path fill-rule="evenodd" clip-rule="evenodd" d="M11.8182 9.54949V30.615C11.8182 30.8016 12.0267 30.91 12.1767 30.8014L14.1856 29.3469C14.3422 29.2335 14.5525 29.2326 14.7101 29.3448L16.7251 30.779C16.9622 30.9478 17.279 30.9458 17.5141 30.7742L19.4634 29.3504C19.6212 29.2352 19.8341 29.2347 19.9924 29.3494L21.969 30.7805C22.2016 30.9489 22.5134 30.952 22.7492 30.7883L24.8412 29.3363C24.9962 29.2286 25.2008 29.2291 25.3554 29.3373L27.4626 30.8122C27.6129 30.9174 27.8182 30.8085 27.8182 30.6235V9.54949C27.8182 9.29617 27.6153 9.09082 27.3649 9.09082H12.2714C12.0211 9.09082 11.8182 9.29617 11.8182 9.54949ZM14.2658 13.7693C14.2658 13.5159 14.4687 13.3106 14.7191 13.3106H20.7474C20.9977 13.3106 21.2006 13.5159 21.2006 13.7693C21.2006 14.0226 20.9977 14.2279 20.7474 14.2279H14.7191C14.4687 14.2279 14.2658 14.0226 14.2658 13.7693ZM14.2658 15.6727C14.2658 15.4194 14.4687 15.2141 14.7191 15.2141H19.4103C19.6606 15.2141 19.8635 15.4194 19.8635 15.6727C19.8635 15.926 19.6606 16.1314 19.4103 16.1314H14.7191C14.4687 16.1314 14.2658 15.926 14.2658 15.6727ZM14.2658 18.1954C14.2658 17.9421 14.4687 17.7367 14.7191 17.7367H20.7474C20.9977 17.7367 21.2006 17.9421 21.2006 18.1954C21.2006 18.4487 20.9977 18.6541 20.7474 18.6541H14.7191C14.4687 18.6541 14.2658 18.4487 14.2658 18.1954ZM14.2658 20.1447C14.2658 19.8914 14.4687 19.6861 14.7191 19.6861H19.4103C19.6606 19.6861 19.8635 19.8914 19.8635 20.1447C19.8635 20.3981 19.6606 20.6034 19.4103 20.6034H14.7191C14.4687 20.6034 14.2658 20.3981 14.2658 20.1447ZM14.2658 22.6674C14.2658 22.4141 14.4687 22.2088 14.7191 22.2088H20.7474C20.9977 22.2088 21.2006 22.4141 21.2006 22.6674C21.2006 22.9207 20.9977 23.1261 20.7474 23.1261H14.7191C14.4687 23.1261 14.2658 22.9207 14.2658 22.6674ZM14.2658 24.6168C14.2658 24.3635 14.4687 24.1581 14.7191 24.1581H19.4103C19.6606 24.1581 19.8635 24.3635 19.8635 24.6168C19.8635 24.8701 19.6606 25.0754 19.4103 25.0754H14.7191C14.4687 25.0754 14.2658 24.8701 14.2658 24.6168ZM22.753 13.7693C22.753 13.5159 22.956 13.3106 23.2063 13.3106H25.0987C25.349 13.3106 25.5519 13.5159 25.5519 13.7693C25.5519 14.0226 25.349 14.2279 25.0987 14.2279H23.2063C22.956 14.2279 22.753 14.0226 22.753 13.7693ZM23.2063 15.214C22.956 15.214 22.753 15.4194 22.753 15.6727C22.753 15.926 22.956 16.1314 23.2063 16.1314H25.0987C25.349 16.1314 25.5519 15.926 25.5519 15.6727C25.5519 15.4194 25.349 15.214 25.0987 15.214H23.2063ZM22.753 18.1954C22.753 17.9421 22.956 17.7367 23.2063 17.7367H25.0987C25.349 17.7367 25.5519 17.9421 25.5519 18.1954C25.5519 18.4487 25.349 18.6541 25.0987 18.6541H23.2063C22.956 18.6541 22.753 18.4487 22.753 18.1954ZM23.2063 19.6861C22.956 19.6861 22.753 19.8914 22.753 20.1447C22.753 20.3981 22.956 20.6034 23.2063 20.6034H25.0987C25.349 20.6034 25.5519 20.3981 25.5519 20.1447C25.5519 19.8914 25.349 19.6861 25.0987 19.6861H23.2063ZM22.753 22.6674C22.753 22.4141 22.956 22.2088 23.2063 22.2088H25.0987C25.349 22.2088 25.5519 22.4141 25.5519 22.6674C25.5519 22.9207 25.349 23.1261 25.0987 23.1261H23.2063C22.956 23.1261 22.753 22.9207 22.753 22.6674ZM23.2063 24.1581C22.956 24.1581 22.753 24.3635 22.753 24.6168C22.753 24.8701 22.956 25.0754 23.2063 25.0754H25.0987C25.349 25.0754 25.5519 24.8701 25.5519 24.6168C25.5519 24.3635 25.349 24.1581 25.0987 24.1581H23.2063Z" fill="#FDBF5E"/>
</mask>
<g mask="url(#mask1_2321_26725)">
<rect x="5" y="5" width="30" height="30" fill="white"/>
</g>
</svg>
