<svg width="27" height="27" viewBox="0 0 27 27" fill="none" xmlns="http://www.w3.org/2000/svg">
<path d="M21.3546 6.13647H5.64546C4.56546 6.13647 3.69164 7.05058 3.69164 8.16782L3.68182 18.8324C3.68182 19.9496 4.56546 20.8637 5.64546 20.8637H21.3546C22.4346 20.8637 23.3182 19.9496 23.3182 18.8324V8.16782C23.3182 7.05058 22.4346 6.13647 21.3546 6.13647ZM20.3727 18.8324H6.62728C6.08728 18.8324 5.64546 18.3753 5.64546 17.8167V10.1992L12.4593 14.6072C13.0975 15.0236 13.9026 15.0236 14.5407 14.6072L21.3546 10.1992V17.8167C21.3546 18.3753 20.9127 18.8324 20.3727 18.8324ZM13.5 13.2462L5.64546 8.16782H21.3546L13.5 13.2462Z" fill="#44566C"/>
<mask id="mask0_2193_18112" style="mask-type:alpha" maskUnits="userSpaceOnUse" x="3" y="6" width="21" height="15">
<path d="M21.3546 6.13647H5.64546C4.56546 6.13647 3.69164 7.05058 3.69164 8.16782L3.68182 18.8324C3.68182 19.9496 4.56546 20.8637 5.64546 20.8637H21.3546C22.4346 20.8637 23.3182 19.9496 23.3182 18.8324V8.16782C23.3182 7.05058 22.4346 6.13647 21.3546 6.13647ZM20.3727 18.8324H6.62728C6.08728 18.8324 5.64546 18.3753 5.64546 17.8167V10.1992L12.4593 14.6072C13.0975 15.0236 13.9026 15.0236 14.5407 14.6072L21.3546 10.1992V17.8167C21.3546 18.3753 20.9127 18.8324 20.3727 18.8324ZM13.5 13.2462L5.64546 8.16782H21.3546L13.5 13.2462Z" fill="white"/>
</mask>
<g mask="url(#mask0_2193_18112)">
<rect width="27" height="27" fill="#44566C"/>
</g>
<path d="M22.7045 10.3182C24.6752 10.3182 26.2727 8.72072 26.2727 6.75007C26.2727 4.77941 24.6752 3.18188 22.7045 3.18188C20.7339 3.18188 19.1364 4.77941 19.1364 6.75007C19.1364 8.72072 20.7339 10.3182 22.7045 10.3182Z" fill="#FD594A" stroke="white"/>
</svg>
