<svg width="40" height="40" viewBox="0 0 40 40" fill="none" xmlns="http://www.w3.org/2000/svg">
<mask id="mask0_2321_3570" style="mask-type:alpha" maskUnits="userSpaceOnUse" x="0" y="0" width="40" height="40">
<circle cx="20" cy="20" r="20" fill="#09B66D"/>
</mask>
<g mask="url(#mask0_2321_3570)">
<rect x="-23" y="-12" width="298" height="64" fill="#09B66D"/>
</g>
<path d="M30.1806 16.3637H24.1115L21.9152 18.5601C21.3661 19.1092 20.6352 19.411 19.8594 19.411C19.0812 19.411 18.3515 19.1079 17.8012 18.5589C17.2533 18.011 16.9503 17.2813 16.9491 16.5043C16.9491 16.457 16.9612 16.411 16.9624 16.3637H9.81818C9.41576 16.3637 9.09091 16.6885 9.09091 17.091V20.0001H30.9091V17.091C30.9091 16.6885 30.5818 16.3637 30.1806 16.3637ZM20.9309 17.5746L27.0582 11.4473C27.343 11.1637 27.3455 10.7043 27.0606 10.4182L25.9455 9.30309C25.6618 9.01946 25.2012 9.02067 24.9152 9.30309L18.7879 15.4316C18.1964 16.0231 18.1964 16.9831 18.7879 17.5746C19.3794 18.1649 20.3382 18.1661 20.9309 17.5746ZM12.5127 28.8134C12.6303 29.2995 13.137 29.697 13.6364 29.697H26.3636C26.863 29.697 27.3697 29.2995 27.4873 28.8134L29.3333 21.2122H10.6667L12.5127 28.8134Z" fill="#44566C"/>
<mask id="mask1_2321_3570" style="mask-type:alpha" maskUnits="userSpaceOnUse" x="9" y="9" width="22" height="21">
<path d="M30.1806 16.3637H24.1115L21.9152 18.5601C21.3661 19.1092 20.6352 19.411 19.8594 19.411C19.0812 19.411 18.3515 19.1079 17.8012 18.5589C17.2533 18.011 16.9503 17.2813 16.9491 16.5043C16.9491 16.457 16.9612 16.411 16.9624 16.3637H9.81818C9.41576 16.3637 9.09091 16.6885 9.09091 17.091V20.0001H30.9091V17.091C30.9091 16.6885 30.5818 16.3637 30.1806 16.3637ZM20.9309 17.5746L27.0582 11.4473C27.343 11.1637 27.3455 10.7043 27.0606 10.4182L25.9455 9.30309C25.6618 9.01946 25.2012 9.02067 24.9152 9.30309L18.7879 15.4316C18.1964 16.0231 18.1964 16.9831 18.7879 17.5746C19.3794 18.1649 20.3382 18.1661 20.9309 17.5746ZM12.5127 28.8134C12.6303 29.2995 13.137 29.697 13.6364 29.697H26.3636C26.863 29.697 27.3697 29.2995 27.4873 28.8134L29.3333 21.2122H10.6667L12.5127 28.8134Z" fill="#CFCFD1"/>
</mask>
<g mask="url(#mask1_2321_3570)">
<rect x="5" y="5" width="30" height="30" fill="white"/>
</g>
</svg>
