<svg width="22" height="22" viewBox="0 0 22 22" fill="none" xmlns="http://www.w3.org/2000/svg">
<path fill-rule="evenodd" clip-rule="evenodd" d="M14.6667 6.55556H11.1111V8.33333H14.6667V6.55556ZM14.6667 9.22222H11.1111V10.1111H14.6667V9.22222ZM10.2222 6.55556H7.55556V10.1111H10.2222V6.55556ZM10.2222 11.8889H14.6667V11H10.2222V11.8889ZM12.8889 13.6667H14.6667V12.7778H12.8889V13.6667ZM14.6667 14.5556H7.55556V15.4444H14.6667V14.5556ZM12 12.7778H7.55556V13.6667H12V12.7778ZM9.33333 11H7.55556V11.8889H9.33333V11ZM17.3333 3H4.88889C4.39733 3 4 3.39733 4 3.88889V18.1111C4 18.6018 4.39733 19 4.88889 19H17.3333C17.8249 19 18.2222 18.6018 18.2222 18.1111V3.88889C18.2222 3.39822 17.8249 3 17.3333 3ZM16.4444 17.2222H5.77778V4.77778H16.4444V17.2222Z" fill="#44566C"/>
<mask id="mask0_808_114" style="mask-type:alpha" maskUnits="userSpaceOnUse" x="4" y="3" width="15" height="16">
<path fill-rule="evenodd" clip-rule="evenodd" d="M14.6667 6.55556H11.1111V8.33333H14.6667V6.55556ZM14.6667 9.22222H11.1111V10.1111H14.6667V9.22222ZM10.2222 6.55556H7.55556V10.1111H10.2222V6.55556ZM10.2222 11.8889H14.6667V11H10.2222V11.8889ZM12.8889 13.6667H14.6667V12.7778H12.8889V13.6667ZM14.6667 14.5556H7.55556V15.4444H14.6667V14.5556ZM12 12.7778H7.55556V13.6667H12V12.7778ZM9.33333 11H7.55556V11.8889H9.33333V11ZM17.3333 3H4.88889C4.39733 3 4 3.39733 4 3.88889V18.1111C4 18.6018 4.39733 19 4.88889 19H17.3333C17.8249 19 18.2222 18.6018 18.2222 18.1111V3.88889C18.2222 3.39822 17.8249 3 17.3333 3ZM16.4444 17.2222H5.77778V4.77778H16.4444V17.2222Z" fill="#CFCFD1"/>
</mask>
<g mask="url(#mask0_808_114)">
<rect width="22" height="22" fill="#44566C"/>
</g>
</svg>
