<svg width="18" height="18" viewBox="0 0 18 18" fill="none" xmlns="http://www.w3.org/2000/svg">
<path fill-rule="evenodd" clip-rule="evenodd" d="M12.1184 13.4407C11.1132 14.1764 9.8736 14.6107 8.53258 14.6107C5.17577 14.6107 2.45454 11.8894 2.45454 8.53262C2.45454 5.17582 5.17577 2.45459 8.53258 2.45459C11.8894 2.45459 14.6106 5.17582 14.6106 8.53262C14.6106 9.87382 14.1762 11.1136 13.4404 12.1188C13.4461 12.1242 13.4518 12.1297 13.4574 12.1353L15.2716 13.9496C15.6367 14.3147 15.6367 14.9068 15.2716 15.272C14.9064 15.6371 14.3143 15.6371 13.9492 15.272L12.1349 13.4577C12.1293 13.4521 12.1238 13.4465 12.1184 13.4407ZM12.874 8.53262C12.874 10.9303 10.9303 12.8741 8.53258 12.8741C6.13486 12.8741 4.19113 10.9303 4.19113 8.53262C4.19113 6.13491 6.13486 4.19117 8.53258 4.19117C10.9303 4.19117 12.874 6.13491 12.874 8.53262Z" fill="#44566C"/>
<mask id="mask0_2321_4157" style="mask-type:alpha" maskUnits="userSpaceOnUse" x="2" y="2" width="14" height="14">
<path fill-rule="evenodd" clip-rule="evenodd" d="M12.1184 13.4407C11.1132 14.1764 9.8736 14.6107 8.53258 14.6107C5.17577 14.6107 2.45454 11.8894 2.45454 8.53262C2.45454 5.17582 5.17577 2.45459 8.53258 2.45459C11.8894 2.45459 14.6106 5.17582 14.6106 8.53262C14.6106 9.87382 14.1762 11.1136 13.4404 12.1188C13.4461 12.1242 13.4518 12.1297 13.4574 12.1353L15.2716 13.9496C15.6367 14.3147 15.6367 14.9068 15.2716 15.272C14.9064 15.6371 14.3143 15.6371 13.9492 15.272L12.1349 13.4577C12.1293 13.4521 12.1238 13.4465 12.1184 13.4407ZM12.874 8.53262C12.874 10.9303 10.9303 12.8741 8.53258 12.8741C6.13486 12.8741 4.19113 10.9303 4.19113 8.53262C4.19113 6.13491 6.13486 4.19117 8.53258 4.19117C10.9303 4.19117 12.874 6.13491 12.874 8.53262Z" fill="#44566C"/>
</mask>
<g mask="url(#mask0_2321_4157)">
<rect width="18" height="18" fill="#8697A8"/>
</g>
</svg>
