<svg width="40" height="40" viewBox="0 0 40 40" fill="none" xmlns="http://www.w3.org/2000/svg">
<mask id="mask0_2321_3550" style="mask-type:alpha" maskUnits="userSpaceOnUse" x="0" y="0" width="40" height="40">
<circle cx="20" cy="20" r="20" fill="#09B66D"/>
</mask>
<g mask="url(#mask0_2321_3550)">
<rect x="-23" y="-12" width="298" height="64" fill="#22CCE2"/>
</g>
<path d="M15.5543 22.9109C14.493 22.9109 13.6322 23.7866 13.6322 24.863C13.6322 25.9426 14.493 26.8182 15.5543 26.8182C16.6125 26.8182 17.4733 25.9426 17.4733 24.863C17.4733 23.7866 16.6125 22.9109 15.5543 22.9109ZM15.5543 25.8422C15.0236 25.8422 14.5917 25.4028 14.5917 24.863C14.5917 24.3263 15.0236 23.8869 15.5543 23.8869C16.0818 23.8869 16.5138 24.3263 16.5138 24.863C16.5138 25.4028 16.0819 25.8422 15.5543 25.8422ZM13.8998 22.9118H9.59815C9.42777 22.9118 9.28966 23.0522 9.28966 23.2256V24.1778C9.28966 24.3511 9.42777 24.4916 9.59815 24.4916H13.0461C13.1361 23.8633 13.4478 23.3082 13.8998 22.9118ZM25.5965 22.9109C24.5382 22.9109 23.6775 23.7866 23.6775 24.863C23.6775 25.9426 24.5383 26.8182 25.5965 26.8182C26.6578 26.8182 27.5154 25.9426 27.5154 24.863C27.5154 23.7866 26.6578 22.9109 25.5965 22.9109ZM25.5965 25.8422C25.0658 25.8422 24.637 25.4028 24.637 24.863C24.637 24.3263 25.0658 23.8869 25.5965 23.8869C26.1271 23.8869 26.5559 24.3263 26.5559 24.863C26.556 25.4028 26.1271 25.8422 25.5965 25.8422ZM30.6006 22.9109H29.8509V18.6458C29.8509 18.1468 29.7028 17.6572 29.4282 17.2429L27.5494 14.4121C27.0928 13.7217 26.3246 13.3074 25.504 13.3074H22.5916C22.2522 13.3074 21.9745 13.5867 21.9745 13.9351V22.9109H17.208C17.6584 23.3095 17.97 23.8619 18.0595 24.4927H23.0913C23.2672 23.2467 24.3223 22.2832 25.5965 22.2832C26.8706 22.2832 27.9258 23.2467 28.1047 24.4927H30.6006C30.7734 24.4927 30.9091 24.3514 30.9091 24.1788V23.2248C30.9091 23.0521 30.7733 22.9109 30.6006 22.9109ZM27.5277 17.8079H23.6837C23.514 17.8079 23.3752 17.6698 23.3752 17.494V15.3254C23.3752 15.1528 23.514 15.0116 23.6837 15.0116H26.0253C26.1271 15.0116 26.2228 15.0618 26.2783 15.1434L27.7808 17.3151C27.9257 17.5223 27.7776 17.8079 27.5277 17.8079ZM20.506 22.2832H9.70792C9.36717 22.2832 9.09091 22.0022 9.09091 21.6556V18.831C9.09091 18.4843 9.36717 18.2033 9.70792 18.2033H20.506C20.8467 18.2033 21.123 18.4843 21.123 18.831V21.6556C21.123 22.0022 20.8467 22.2832 20.506 22.2832ZM14.0272 17.2618H9.70792C9.36717 17.2618 9.09091 16.9807 9.09091 16.6341V13.8096C9.09091 13.4629 9.36717 13.1819 9.70792 13.1819H14.0271C14.3679 13.1819 14.6442 13.4629 14.6442 13.8096V16.6341C14.6442 16.9807 14.368 17.2618 14.0272 17.2618ZM20.506 17.2618H16.1868C15.846 17.2618 15.5697 16.9808 15.5697 16.6342V13.8096C15.5697 13.4629 15.846 13.1819 16.1868 13.1819H20.506C20.8468 13.1819 21.123 13.4629 21.123 13.8096V16.6342C21.123 16.9807 20.8467 17.2618 20.506 17.2618Z" fill="#44566C"/>
<mask id="mask1_2321_3550" style="mask-type:alpha" maskUnits="userSpaceOnUse" x="9" y="13" width="22" height="14">
<path d="M15.5543 22.9109C14.493 22.9109 13.6322 23.7866 13.6322 24.863C13.6322 25.9426 14.493 26.8182 15.5543 26.8182C16.6125 26.8182 17.4733 25.9426 17.4733 24.863C17.4733 23.7866 16.6125 22.9109 15.5543 22.9109ZM15.5543 25.8422C15.0236 25.8422 14.5917 25.4028 14.5917 24.863C14.5917 24.3263 15.0236 23.8869 15.5543 23.8869C16.0818 23.8869 16.5138 24.3263 16.5138 24.863C16.5138 25.4028 16.0819 25.8422 15.5543 25.8422ZM13.8998 22.9118H9.59815C9.42777 22.9118 9.28966 23.0522 9.28966 23.2256V24.1778C9.28966 24.3511 9.42777 24.4916 9.59815 24.4916H13.0461C13.1361 23.8633 13.4478 23.3082 13.8998 22.9118ZM25.5965 22.9109C24.5382 22.9109 23.6775 23.7866 23.6775 24.863C23.6775 25.9426 24.5383 26.8182 25.5965 26.8182C26.6578 26.8182 27.5154 25.9426 27.5154 24.863C27.5154 23.7866 26.6578 22.9109 25.5965 22.9109ZM25.5965 25.8422C25.0658 25.8422 24.637 25.4028 24.637 24.863C24.637 24.3263 25.0658 23.8869 25.5965 23.8869C26.1271 23.8869 26.5559 24.3263 26.5559 24.863C26.556 25.4028 26.1271 25.8422 25.5965 25.8422ZM30.6006 22.9109H29.8509V18.6458C29.8509 18.1468 29.7028 17.6572 29.4282 17.2429L27.5494 14.4121C27.0928 13.7217 26.3246 13.3074 25.504 13.3074H22.5916C22.2522 13.3074 21.9745 13.5867 21.9745 13.9351V22.9109H17.208C17.6584 23.3095 17.97 23.8619 18.0595 24.4927H23.0913C23.2672 23.2467 24.3223 22.2832 25.5965 22.2832C26.8706 22.2832 27.9258 23.2467 28.1047 24.4927H30.6006C30.7734 24.4927 30.9091 24.3514 30.9091 24.1788V23.2248C30.9091 23.0521 30.7733 22.9109 30.6006 22.9109ZM27.5277 17.8079H23.6837C23.514 17.8079 23.3752 17.6698 23.3752 17.494V15.3254C23.3752 15.1528 23.514 15.0116 23.6837 15.0116H26.0253C26.1271 15.0116 26.2228 15.0618 26.2783 15.1434L27.7808 17.3151C27.9257 17.5223 27.7776 17.8079 27.5277 17.8079ZM20.506 22.2832H9.70792C9.36717 22.2832 9.09091 22.0022 9.09091 21.6556V18.831C9.09091 18.4843 9.36717 18.2033 9.70792 18.2033H20.506C20.8467 18.2033 21.123 18.4843 21.123 18.831V21.6556C21.123 22.0022 20.8467 22.2832 20.506 22.2832ZM14.0272 17.2618H9.70792C9.36717 17.2618 9.09091 16.9807 9.09091 16.6341V13.8096C9.09091 13.4629 9.36717 13.1819 9.70792 13.1819H14.0271C14.3679 13.1819 14.6442 13.4629 14.6442 13.8096V16.6341C14.6442 16.9807 14.368 17.2618 14.0272 17.2618ZM20.506 17.2618H16.1868C15.846 17.2618 15.5697 16.9808 15.5697 16.6342V13.8096C15.5697 13.4629 15.846 13.1819 16.1868 13.1819H20.506C20.8468 13.1819 21.123 13.4629 21.123 13.8096V16.6342C21.123 16.9807 20.8467 17.2618 20.506 17.2618Z" fill="black"/>
</mask>
<g mask="url(#mask1_2321_3550)">
<rect x="5" y="5" width="30" height="30" fill="white"/>
</g>
</svg>
