<svg width="22" height="22" viewBox="0 0 22 22" fill="none" xmlns="http://www.w3.org/2000/svg">
<mask id="mask0_848_27" style="mask-type:alpha" maskUnits="userSpaceOnUse" x="3" y="3" width="16" height="16">
<path d="M16.4841 18.15H5.00018C4.36505 18.15 3.85018 17.6351 3.85018 17V16.2025C3.85018 15.836 4.02483 15.4915 4.32041 15.2749L7.56808 12.8948C8.08357 12.517 8.74041 12.3882 9.36042 12.5432L9.80818 12.6551C10.4213 12.8084 11.0626 12.8084 11.6757 12.6551L12.1235 12.5432C12.7435 12.3882 13.4003 12.517 13.9158 12.8948L17.1638 15.2749C17.4594 15.4915 17.6341 15.836 17.6341 16.2025V17C17.6341 17.6351 17.1192 18.15 16.4841 18.15ZM7.46309 7.1289C7.46309 5.33004 8.94918 3.86327 10.7607 3.87355C12.5577 3.88375 14.0212 5.34464 14.0212 7.12917C14.0212 8.92802 12.5351 10.3948 10.7235 10.3845C8.92649 10.3743 7.46309 8.91342 7.46309 7.1289Z" stroke="#44566C" stroke-width="1.7"/>
</mask>
<g mask="url(#mask0_848_27)">
<rect width="22" height="22" fill="#44566C"/>
</g>
</svg>
